<svg width="34" height="32" viewBox="0 0 34 32" fill="none" xmlns="http://www.w3.org/2000/svg">
<path d="M33.2889 4.99777C33.0968 4.03128 32.718 3.14917 32.1903 2.43977C31.6628 1.73037 31.0049 1.21858 30.2826 0.955658C27.6321 -2.53787e-07 17 0 17 0C17 0 6.36791 -2.53787e-07 3.71591 0.955658C2.994 1.21905 2.3365 1.73103 1.80919 2.44037C1.28189 3.14972 0.903255 4.03159 0.711166 4.99777C0 8.563 0 16 0 16C0 16 0 23.4371 0.711166 27.0023C0.903247 27.9688 1.28204 28.8509 1.80964 29.5603C2.33722 30.2696 2.99508 30.7814 3.71734 31.0444C6.36791 32 17 32 17 32C17 32 27.6321 32 30.2841 31.0444C31.0064 30.7817 31.6643 30.2699 32.1919 29.5605C32.7196 28.851 33.0983 27.9688 33.2903 27.0023C34 23.4371 34 16 34 16C34 16 34 8.563 33.2889 4.99777ZM13.5221 22.752V9.24809L22.4089 16L13.5221 22.752Z" fill="black"/>
</svg>
